<svg width="52" height="41" viewBox="0 0 52 41" fill="none" xmlns="http://www.w3.org/2000/svg">
<path d="M18.29 9.29476H3.84248C4.31789 8.40719 4.70309 7.67812 5.09804 6.95636C6.16832 4.99835 7.25323 3.04521 8.31132 1.07988C8.50392 0.719005 8.71115 0.53125 9.14755 0.53125C17.7805 0.543442 26.4159 0.538565 35.0488 0.541003C35.1878 0.541003 35.3267 0.562949 35.6217 0.587333C29.5633 10.8797 23.5512 21.0916 17.4684 31.4254C17.8512 31.4669 18.0974 31.5156 18.3437 31.5156C22.225 31.5205 26.1038 31.5254 29.9851 31.5083C30.4654 31.5083 30.7579 31.6351 31.0042 32.074C32.4499 34.6368 33.9298 37.1849 35.3926 39.7378C35.4511 39.8402 35.4803 39.9597 35.5486 40.1426H0.490234C6.47551 29.8941 12.434 19.6895 18.39 9.48739C18.3559 9.42399 18.3217 9.3606 18.29 9.2972V9.29476Z" fill="black"/>
<path d="M51.9898 40.2036C51.6973 40.2036 51.5022 40.2036 51.3072 40.2036C48.0963 40.2036 44.8879 40.1938 41.6771 40.2133C41.1724 40.2158 40.8872 40.0768 40.6166 39.6232C37.3545 34.1003 34.0632 28.592 30.7817 23.0789C30.2429 22.1718 29.7285 21.2477 29.1677 20.3528C28.941 19.9895 28.9581 19.709 29.1751 19.3506C30.6744 16.8659 32.1543 14.3666 33.6439 11.8746C35.7991 8.26821 37.9616 4.66185 40.1095 1.05062C40.3021 0.731197 40.4898 0.53125 40.9067 0.53125C44.4832 0.54588 48.0573 0.541003 51.6339 0.541003C51.7143 0.541003 51.7923 0.555634 51.9996 0.575141C51.5705 1.29934 51.1804 1.96745 50.7781 2.62825C48.8302 5.83959 46.8822 9.04848 44.9294 12.2574C43.4739 14.6494 42.0209 17.0463 40.5483 19.4262C40.3411 19.7627 40.3045 20.0163 40.5093 20.3674C43.7445 25.9074 46.9675 31.4547 50.1954 36.9995C50.6952 37.8603 51.1975 38.7186 51.6924 39.5818C51.7899 39.75 51.863 39.9329 51.9898 40.2036Z" fill="black"/>
</svg>
